___________________________________________________________________________________


Format                                   : MPEG-4
Format profile                           : Base Media
Codec ID                                 : isom
File size                                : 752 MiB
Duration                                 : 1h 50mn
Overall bit rate mode                    : Variable
Overall bit rate                         : 951 Kbps
Encoded date                             : UTC 2012-02-05 05:41:24
Tagged date                              : UTC 2012-02-05 05:41:24

Video
ID                                       : 1
Format                                   : AVC
Format/Info                              : Advanced Video Codec
Format profile                           : High@L3.1
Format settings, CABAC                   : Yes
Format settings, ReFrames                : 5 frames
Codec ID                                 : avc1
Codec ID/Info                            : Advanced Video Coding
Duration                                 : 1h 50mn
Bit rate                                 : 884 Kbps
Maximum bit rate                         : 4 227 Kbps
Width                                    : 1 280 pixels
Height                                   : 544 pixels
Display aspect ratio                     : 2.35:1
Frame rate mode                          : Constant
Frame rate                               : 23.976 fps
Color space                              : YUV
Chroma subsampling                       : 4:2:0
Bit depth                                : 8 bits
Scan type                                : Progressive
Bits/(Pixel*Frame)                       : 0.053
Stream size                              : 699 MiB (93%)
Writing library                          : x264 core 116 r2074 2641b9e
Encoding settings                        : cabac=1 / ref=5 / deblock=1:-2:-1 / analyse=0x3:0x113 / me=umh / subme=8 / psy=1 / psy_rd=1.00:0.00 / mixed_ref=1 / me_range=16 / chroma_me=1 / trellis=1 / 8x8dct=1 / cqm=0 / deadzone=21,11 / fast_pskip=1 / chroma_qp_offset=-2 / threads=12 / sliced_threads=0 / nr=0 / decimate=1 / interlaced=0 / bluray_compat=0 / constrained_intra=0 / bframes=3 / b_pyramid=2 / b_adapt=2 / b_bias=0 / direct=3 / weightb=1 / open_gop=0 / weightp=2 / keyint=250 / keyint_min=23 / scenecut=40 / intra_refresh=0 / rc_lookahead=50 / rc=2pass / mbtree=1 / bitrate=884 / ratetol=1.0 / qcomp=0.60 / qpmin=10 / qpmax=51 / qpstep=4 / cplxblur=20.0 / qblur=0.5 / ip_ratio=1.40 / aq=1:1.00
Encoded date                             : UTC 2012-02-03 07:56:01
Tagged date                              : UTC 2012-02-03 07:56:33
___________________________________________________________________________________

Audio
ID                                       : 2
Format                                   : AAC
Format/Info                              : Advanced Audio Codec
Format profile                           : HE-AAC / LC
Codec ID                                 : 40
Duration                                 : 1h 50mn
Bit rate mode                            : Variable
Bit rate                                 : 64.0 Kbps
Maximum bit rate                         : 72.6 Kbps
Channel(s)                               : 2 channels
Channel positions                        : Front: L R
Sampling rate                            : 48.0 KHz / 24.0 KHz
Compression mode                         : Lossy
Stream size                              : 50.6 MiB (7%)
Encoded date                             : UTC 2012-02-05 05:41:24
Tagged date                              : UTC 2012-02-05 05:41:24
___________________________________________________________________________________

Subtitles                                : Yes
Type                                     : SRT
Languages                                : English,Spanish,Vietnamese,Slovenski
___________________________________________________________________________________

Plz Comment On Quality. Hit +1 If You Like!Requests Are Welcome
___________________________________________________________________________________

Plz Don't Kill The Torrent Guyz! Seed It As Long As Possible!
___________________________________________________________________________________

- Nexus Wolf
___________________________________________________________________________________
